<svg xmlns="http://www.w3.org/2000/svg" version="1.1" xmlns:xlink="http://www.w3.org/1999/xlink" xmlns:svgjs="http://svgjs.dev/svgjs" width="2000" height="700" preserveAspectRatio="none" viewBox="0 0 2000 700"><g mask="url(&quot;#SvgjsMask1072&quot;)" fill="none"><rect width="2000" height="700" x="0" y="0" fill="rgba(0, 194, 203, 1)"></rect><path d="M0,602.39C109.408,583.731,184.748,491.518,284.151,442.148C399.979,384.621,567.001,400.447,631.867,288.564C695.982,177.976,615.402,40.43,589.643,-84.778C565.518,-202.043,573.592,-339.532,485.884,-421.021C399.061,-501.687,262.792,-477.26,145.938,-497.019C44.245,-514.214,-52.35,-531.532,-155.466,-529.467C-293.078,-526.711,-461.377,-581.609,-557.336,-482.935C-652.111,-385.479,-572.204,-219.566,-588.132,-84.561C-603.517,45.848,-694.668,173.298,-649.295,296.523C-603.478,420.954,-474.062,494.494,-354.107,551.002C-243.977,602.882,-120.005,622.857,0,602.39" fill="#00b8c1"></path><path d="M2000 1625.8139999999999C2170.313 1626.742 2300.521 1477.796 2425.497 1362.087 2533.322 1262.257 2590.2780000000002 1129.481 2669.648 1005.818 2764.3360000000002 858.289 2965.61 738.228 2936.9 565.294 2908.0370000000003 391.436 2673.42 347.529 2541.047 231.18 2430.692 134.18399999999997 2363.641-17.081999999999994 2223.634-61.62800000000004 2082.708-106.46600000000001 1929.305-62.94399999999996 1792.402-7.01400000000001 1664.687 45.16300000000001 1569.371 144.50099999999998 1474.3220000000001 244.497 1374.8490000000002 349.148 1266.969 450.246 1226.13 588.734 1181.8899999999999 738.756 1172.263 906.067 1237.279 1048.3229999999999 1302.288 1190.563 1452.786 1263.0639999999999 1577.471 1357.4679999999998 1713.241 1460.2649999999999 1829.7069999999999 1624.886 2000 1625.8139999999999" fill="#00ccd5"></path></g><defs><mask id="SvgjsMask1072"><rect width="2000" height="700" fill="#ffffff"></rect></mask></defs></svg>